<svg width="20" height="20" viewBox="0 0 20 20" fill="none" xmlns="http://www.w3.org/2000/svg">
    <path fill-rule="evenodd" clip-rule="evenodd"
    d="M13.1981 1.22004L3.12013 11.298C2.96948 11.4483 2.87069 11.6428 2.83813 11.853L2.13313 16.447C2.10934 16.6022 2.12242 16.7608 2.17129 16.91C2.22017 17.0591 2.30348 17.1947 2.41448 17.3057C2.52547 17.4167 2.66104 17.5 2.81022 17.5489C2.95939 17.5978 3.11797 17.6108 3.27313 17.587L7.86813 16.882C8.0783 16.8498 8.27271 16.7513 8.42313 16.601L18.5011 6.52304C18.6886 6.33552 18.7939 6.08121 18.7939 5.81604C18.7939 5.55088 18.6886 5.29657 18.5011 5.10905L14.6111 1.21904C14.4236 1.03188 14.1696 0.926758 13.9046 0.926758C13.6397 0.926758 13.3856 1.03188 13.1981 1.21904V1.22004ZM4.31713 15.404L4.76513 12.48L13.9051 3.34004L16.3801 5.81604L7.24013 14.956L4.31713 15.404Z"
        fill="#FFFFFF" />
    <path d="M11.4419 5.24704L12.5019 4.18604L15.7439 7.42604L14.6829 8.48704L11.4419 5.24704Z"
        fill="#FFFFFF" />
</svg>