<svg width="16" height="10" viewBox="0 0 16 10" fill="none" xmlns="http://www.w3.org/2000/svg">
<path d="M0.853543 0.989796C1.06405 0.778429 1.34989 0.659323 1.64819 0.658669C1.9465 0.658016 2.23286 0.775869 2.44429 0.986312L8.02522 6.54285L13.5818 0.961919C13.7935 0.756527 14.0774 0.642511 14.3724 0.644428C14.6674 0.646346 14.9498 0.764043 15.1588 0.972169C15.3679 1.1803 15.4868 1.4622 15.49 1.75717C15.4932 2.05213 15.3805 2.33656 15.176 2.54918L8.82582 8.92723C8.61531 9.1386 8.32948 9.2577 8.03117 9.25836C7.73286 9.25901 7.4465 9.14116 7.23507 8.93071L0.857027 2.58054C0.64566 2.37004 0.526554 2.0842 0.525901 1.78589C0.525248 1.48758 0.6431 1.20123 0.853543 0.989796Z" fill="black"/>
</svg>
